<mxfile host="app.diagrams.net" agent="Mozilla/5.0 (Macintosh; Intel Mac OS X 10_15_7) AppleWebKit/605.1.15 (KHTML, like Gecko) Version/18.1.1 Safari/605.1.15" version="25.0.1">
  <diagram id="C5RBs43oDa-KdzZeNtuy" name="Page-1">
    <mxGraphModel dx="1274" dy="737" grid="1" gridSize="10" guides="1" tooltips="1" connect="1" arrows="1" fold="1" page="1" pageScale="1" pageWidth="1169" pageHeight="827" math="0" shadow="0">
      <root>
        <mxCell id="WIyWlLk6GJQsqaUBKTNV-0" />
        <mxCell id="WIyWlLk6GJQsqaUBKTNV-1" parent="WIyWlLk6GJQsqaUBKTNV-0" />
        <mxCell id="KWccycREvvYaWBI_ZZew-56" style="edgeStyle=orthogonalEdgeStyle;rounded=0;orthogonalLoop=1;jettySize=auto;html=1;strokeWidth=3;fillColor=#f5f5f5;gradientColor=#b3b3b3;strokeColor=#666666;" edge="1" parent="WIyWlLk6GJQsqaUBKTNV-1" source="KWccycREvvYaWBI_ZZew-52" target="KWccycREvvYaWBI_ZZew-37">
          <mxGeometry relative="1" as="geometry">
            <Array as="points" />
          </mxGeometry>
        </mxCell>
        <mxCell id="KWccycREvvYaWBI_ZZew-64" value="&lt;p style=&quot;margin: 0px; font-style: normal; font-variant-caps: normal; font-stretch: normal; line-height: normal; font-size-adjust: none; font-kerning: auto; font-variant-alternates: normal; font-variant-ligatures: normal; font-variant-numeric: normal; font-variant-east-asian: normal; font-variant-position: normal; font-feature-settings: normal; font-optical-sizing: auto; font-variation-settings: normal;&quot;&gt;Tour Length&lt;/p&gt;" style="rounded=0;whiteSpace=wrap;html=1;fillColor=#E9DDAF;strokeColor=#E9DDAF;fontFamily=Comic Sans MS;fontSize=18;glass=0;" vertex="1" parent="WIyWlLk6GJQsqaUBKTNV-1">
          <mxGeometry x="760" y="560" width="240" height="120" as="geometry" />
        </mxCell>
        <mxCell id="KWccycREvvYaWBI_ZZew-77" style="edgeStyle=none;rounded=0;orthogonalLoop=1;jettySize=auto;html=1;strokeWidth=3;fillColor=#f5f5f5;gradientColor=#b3b3b3;strokeColor=#666666;" edge="1" parent="WIyWlLk6GJQsqaUBKTNV-1" source="KWccycREvvYaWBI_ZZew-1" target="KWccycREvvYaWBI_ZZew-2">
          <mxGeometry relative="1" as="geometry" />
        </mxCell>
        <mxCell id="KWccycREvvYaWBI_ZZew-1" value="&lt;p style=&quot;margin: 0px; font-style: normal; font-variant-caps: normal; font-stretch: normal; line-height: normal; font-size-adjust: none; font-kerning: auto; font-variant-alternates: normal; font-variant-ligatures: normal; font-variant-numeric: normal; font-variant-east-asian: normal; font-variant-position: normal; font-feature-settings: normal; font-optical-sizing: auto; font-variation-settings: normal;&quot;&gt;Input Coordinates&lt;/p&gt;" style="rounded=0;whiteSpace=wrap;html=1;fillColor=#6F8A91;strokeColor=#6F8A91;fontFamily=Comic Sans MS;fontSize=18;glass=0;" vertex="1" parent="WIyWlLk6GJQsqaUBKTNV-1">
          <mxGeometry x="25" y="154" width="240" height="120" as="geometry" />
        </mxCell>
        <mxCell id="KWccycREvvYaWBI_ZZew-78" style="edgeStyle=none;rounded=0;orthogonalLoop=1;jettySize=auto;html=1;strokeWidth=3;fillColor=#f5f5f5;gradientColor=#b3b3b3;strokeColor=#666666;" edge="1" parent="WIyWlLk6GJQsqaUBKTNV-1" source="KWccycREvvYaWBI_ZZew-2" target="KWccycREvvYaWBI_ZZew-4">
          <mxGeometry relative="1" as="geometry" />
        </mxCell>
        <mxCell id="KWccycREvvYaWBI_ZZew-2" value="&lt;p style=&quot;margin: 0px; font-style: normal; font-variant-caps: normal; font-stretch: normal; line-height: normal; font-size-adjust: none; font-kerning: auto; font-variant-alternates: normal; font-variant-ligatures: normal; font-variant-numeric: normal; font-variant-east-asian: normal; font-variant-position: normal; font-feature-settings: normal; font-optical-sizing: auto; font-variation-settings: normal;&quot;&gt;Transformer Encoder&lt;/p&gt;" style="rounded=0;whiteSpace=wrap;html=1;fillColor=#6F8A91;strokeColor=#6F8A91;fontFamily=Comic Sans MS;fontSize=18;glass=0;" vertex="1" parent="WIyWlLk6GJQsqaUBKTNV-1">
          <mxGeometry x="25" y="360" width="240" height="120" as="geometry" />
        </mxCell>
        <mxCell id="KWccycREvvYaWBI_ZZew-79" style="edgeStyle=none;rounded=0;orthogonalLoop=1;jettySize=auto;html=1;strokeWidth=3;fillColor=#f5f5f5;gradientColor=#b3b3b3;strokeColor=#666666;" edge="1" parent="WIyWlLk6GJQsqaUBKTNV-1" source="KWccycREvvYaWBI_ZZew-4" target="KWccycREvvYaWBI_ZZew-5">
          <mxGeometry relative="1" as="geometry" />
        </mxCell>
        <mxCell id="KWccycREvvYaWBI_ZZew-4" value="&lt;p style=&quot;margin: 0px; font-style: normal; font-variant-caps: normal; font-stretch: normal; line-height: normal; font-size-adjust: none; font-kerning: auto; font-variant-alternates: normal; font-variant-ligatures: normal; font-variant-numeric: normal; font-variant-east-asian: normal; font-variant-position: normal; font-feature-settings: normal; font-optical-sizing: auto; font-variation-settings: normal;&quot;&gt;LSTM Decoder&lt;/p&gt;" style="rounded=0;whiteSpace=wrap;html=1;fillColor=#6F8A91;strokeColor=#6F8A91;fontFamily=Comic Sans MS;fontSize=18;glass=0;" vertex="1" parent="WIyWlLk6GJQsqaUBKTNV-1">
          <mxGeometry x="25" y="560" width="240" height="120" as="geometry" />
        </mxCell>
        <mxCell id="KWccycREvvYaWBI_ZZew-5" value="&lt;p style=&quot;margin: 0px; font-style: normal; font-variant-caps: normal; font-stretch: normal; line-height: normal; font-size-adjust: none; font-kerning: auto; font-variant-alternates: normal; font-variant-ligatures: normal; font-variant-numeric: normal; font-variant-east-asian: normal; font-variant-position: normal; font-feature-settings: normal; font-optical-sizing: auto; font-variation-settings: normal;&quot;&gt;Pointer Distribution&lt;/p&gt;" style="rounded=0;whiteSpace=wrap;html=1;fillColor=#6F8A91;strokeColor=#6F8A91;fontFamily=Comic Sans MS;fontSize=18;glass=0;" vertex="1" parent="WIyWlLk6GJQsqaUBKTNV-1">
          <mxGeometry x="340" y="560" width="240" height="120" as="geometry" />
        </mxCell>
        <mxCell id="KWccycREvvYaWBI_ZZew-15" value="&lt;font&gt;Pointer Network&lt;/font&gt;" style="text;html=1;align=center;verticalAlign=middle;whiteSpace=wrap;rounded=0;fontFamily=Comic Sans MS;fontSize=20;fontStyle=1" vertex="1" parent="WIyWlLk6GJQsqaUBKTNV-1">
          <mxGeometry x="65" y="120" width="160" height="30" as="geometry" />
        </mxCell>
        <mxCell id="KWccycREvvYaWBI_ZZew-76" value="" style="edgeStyle=none;orthogonalLoop=1;jettySize=auto;html=1;rounded=1;endArrow=none;endFill=0;strokeWidth=3;strokeColor=#6F8A91;curved=0;" edge="1" parent="WIyWlLk6GJQsqaUBKTNV-1">
          <mxGeometry width="80" relative="1" as="geometry">
            <mxPoint x="10" y="120" as="sourcePoint" />
            <mxPoint x="10" y="120" as="targetPoint" />
            <Array as="points">
              <mxPoint x="10" y="690" />
              <mxPoint x="590" y="690" />
              <mxPoint x="590" y="550" />
              <mxPoint x="280" y="550" />
              <mxPoint x="280" y="120" />
            </Array>
          </mxGeometry>
        </mxCell>
        <mxCell id="KWccycREvvYaWBI_ZZew-81" value="" style="group" vertex="1" connectable="0" parent="WIyWlLk6GJQsqaUBKTNV-1">
          <mxGeometry x="320" y="120" width="840" height="180" as="geometry" />
        </mxCell>
        <mxCell id="KWccycREvvYaWBI_ZZew-50" value="&lt;p style=&quot;margin: 0px; font-style: normal; font-variant-caps: normal; font-stretch: normal; line-height: normal; font-size-adjust: none; font-kerning: auto; font-variant-alternates: normal; font-variant-ligatures: normal; font-variant-numeric: normal; font-variant-east-asian: normal; font-variant-position: normal; font-feature-settings: normal; font-optical-sizing: auto; font-variation-settings: normal;&quot;&gt;Tour Length&lt;/p&gt;" style="rounded=0;whiteSpace=wrap;html=1;fillColor=#DEAA87;strokeColor=#DEAA87;fontFamily=Comic Sans MS;fontSize=18;glass=0;" vertex="1" parent="KWccycREvvYaWBI_ZZew-81">
          <mxGeometry x="20" y="40" width="240" height="120" as="geometry" />
        </mxCell>
        <mxCell id="KWccycREvvYaWBI_ZZew-52" value="&lt;p style=&quot;margin: 0px; font-style: normal; font-variant-caps: normal; font-stretch: normal; line-height: normal; font-size-adjust: none; font-kerning: auto; font-variant-alternates: normal; font-variant-ligatures: normal; font-variant-numeric: normal; font-variant-east-asian: normal; font-variant-position: normal; font-feature-settings: normal; font-optical-sizing: auto; font-variation-settings: normal;&quot;&gt;Crossing Penalty&lt;/p&gt;" style="rounded=0;whiteSpace=wrap;html=1;fillColor=#DEAA87;strokeColor=#DEAA87;fontFamily=Comic Sans MS;fontSize=18;glass=0;" vertex="1" parent="KWccycREvvYaWBI_ZZew-81">
          <mxGeometry x="300" y="40" width="240" height="120" as="geometry" />
        </mxCell>
        <mxCell id="KWccycREvvYaWBI_ZZew-53" value="&lt;p style=&quot;margin: 0px; font-style: normal; font-variant-caps: normal; font-stretch: normal; line-height: normal; font-size-adjust: none; font-kerning: auto; font-variant-alternates: normal; font-variant-ligatures: normal; font-variant-numeric: normal; font-variant-east-asian: normal; font-variant-position: normal; font-feature-settings: normal; font-optical-sizing: auto; font-variation-settings: normal;&quot;&gt;Local Clustering&lt;/p&gt;" style="rounded=0;whiteSpace=wrap;html=1;fillColor=#DEAA87;strokeColor=#DEAA87;fontFamily=Comic Sans MS;fontSize=18;glass=0;gradientColor=none;fillStyle=auto;" vertex="1" parent="KWccycREvvYaWBI_ZZew-81">
          <mxGeometry x="580" y="40" width="240" height="120" as="geometry" />
        </mxCell>
        <mxCell id="KWccycREvvYaWBI_ZZew-54" value="Reward Components" style="text;html=1;align=center;verticalAlign=middle;whiteSpace=wrap;rounded=0;fontFamily=Comic Sans MS;fontSize=20;fontStyle=1" vertex="1" parent="KWccycREvvYaWBI_ZZew-81">
          <mxGeometry x="300" y="1" width="240" height="30" as="geometry" />
        </mxCell>
        <mxCell id="KWccycREvvYaWBI_ZZew-48" value="" style="rounded=1;whiteSpace=wrap;html=1;fillColor=none;strokeColor=#DEAA87;strokeWidth=3;perimeterSpacing=0;glass=1;fontFamily=Comic Sans MS;" vertex="1" parent="KWccycREvvYaWBI_ZZew-81">
          <mxGeometry width="840" height="180" as="geometry" />
        </mxCell>
        <mxCell id="KWccycREvvYaWBI_ZZew-82" value="" style="group" vertex="1" connectable="0" parent="WIyWlLk6GJQsqaUBKTNV-1">
          <mxGeometry x="320" y="343" width="840" height="180" as="geometry" />
        </mxCell>
        <mxCell id="KWccycREvvYaWBI_ZZew-44" value="" style="rounded=1;whiteSpace=wrap;html=1;fillColor=none;strokeColor=#93AC93;strokeWidth=3;perimeterSpacing=0;glass=1;fontFamily=Comic Sans MS;" vertex="1" parent="KWccycREvvYaWBI_ZZew-82">
          <mxGeometry width="840" height="180" as="geometry" />
        </mxCell>
        <mxCell id="KWccycREvvYaWBI_ZZew-33" style="edgeStyle=none;rounded=0;orthogonalLoop=1;jettySize=auto;html=1;strokeWidth=3;endArrow=block;endFill=1;fontFamily=Comic Sans MS;fontSize=18;fillColor=#f5f5f5;gradientColor=#b3b3b3;strokeColor=#666666;" edge="1" parent="KWccycREvvYaWBI_ZZew-82" source="KWccycREvvYaWBI_ZZew-34" target="KWccycREvvYaWBI_ZZew-37">
          <mxGeometry relative="1" as="geometry" />
        </mxCell>
        <mxCell id="KWccycREvvYaWBI_ZZew-34" value="&lt;p style=&quot;margin: 0px; font-style: normal; font-variant-caps: normal; font-stretch: normal; line-height: normal; font-size-adjust: none; font-kerning: auto; font-variant-alternates: normal; font-variant-ligatures: normal; font-variant-numeric: normal; font-variant-east-asian: normal; font-variant-position: normal; font-feature-settings: normal; font-optical-sizing: auto; font-variation-settings: normal;&quot;&gt;Action Sampling&lt;/p&gt;" style="rounded=0;whiteSpace=wrap;html=1;fillColor=#93AC93;strokeColor=#93AC93;fontFamily=Comic Sans MS;fontSize=18;glass=0;" vertex="1" parent="KWccycREvvYaWBI_ZZew-82">
          <mxGeometry x="20" y="20" width="240" height="120" as="geometry" />
        </mxCell>
        <mxCell id="KWccycREvvYaWBI_ZZew-42" style="edgeStyle=orthogonalEdgeStyle;rounded=0;orthogonalLoop=1;jettySize=auto;html=1;entryX=0;entryY=0.5;entryDx=0;entryDy=0;strokeWidth=3;fillColor=#f5f5f5;gradientColor=#b3b3b3;strokeColor=#666666;" edge="1" parent="KWccycREvvYaWBI_ZZew-82" source="KWccycREvvYaWBI_ZZew-37" target="KWccycREvvYaWBI_ZZew-39">
          <mxGeometry relative="1" as="geometry" />
        </mxCell>
        <mxCell id="KWccycREvvYaWBI_ZZew-37" value="&lt;p style=&quot;margin: 0px; font-style: normal; font-variant-caps: normal; font-stretch: normal; line-height: normal; font-size-adjust: none; font-kerning: auto; font-variant-alternates: normal; font-variant-ligatures: normal; font-variant-numeric: normal; font-variant-east-asian: normal; font-variant-position: normal; font-feature-settings: normal; font-optical-sizing: auto; font-variation-settings: normal;&quot;&gt;Reward Calculation&lt;/p&gt;" style="rounded=0;whiteSpace=wrap;html=1;fillColor=#93AC93;strokeColor=#93AC93;fontFamily=Comic Sans MS;fontSize=18;glass=0;" vertex="1" parent="KWccycREvvYaWBI_ZZew-82">
          <mxGeometry x="300" y="20" width="240" height="120" as="geometry" />
        </mxCell>
        <mxCell id="KWccycREvvYaWBI_ZZew-39" value="&lt;p style=&quot;margin: 0px; font-style: normal; font-variant-caps: normal; font-stretch: normal; line-height: normal; font-size-adjust: none; font-kerning: auto; font-variant-alternates: normal; font-variant-ligatures: normal; font-variant-numeric: normal; font-variant-east-asian: normal; font-variant-position: normal; font-feature-settings: normal; font-optical-sizing: auto; font-variation-settings: normal;&quot;&gt;Policy Update&lt;/p&gt;" style="rounded=0;whiteSpace=wrap;html=1;fillColor=#93AC93;strokeColor=#93AC93;fontFamily=Comic Sans MS;fontSize=18;glass=0;gradientColor=none;fillStyle=auto;" vertex="1" parent="KWccycREvvYaWBI_ZZew-82">
          <mxGeometry x="580" y="20" width="240" height="120" as="geometry" />
        </mxCell>
        <mxCell id="KWccycREvvYaWBI_ZZew-41" value="&lt;font&gt;PPO&lt;/font&gt;" style="text;html=1;align=center;verticalAlign=middle;whiteSpace=wrap;rounded=0;fontFamily=Comic Sans MS;fontSize=20;labelBackgroundColor=none;fontStyle=1" vertex="1" parent="KWccycREvvYaWBI_ZZew-82">
          <mxGeometry x="340" y="150" width="160" height="30" as="geometry" />
        </mxCell>
        <mxCell id="KWccycREvvYaWBI_ZZew-84" style="edgeStyle=none;rounded=0;orthogonalLoop=1;jettySize=auto;html=1;entryX=0.5;entryY=1;entryDx=0;entryDy=0;fillColor=#f5f5f5;gradientColor=#b3b3b3;strokeColor=#666666;strokeWidth=3;" edge="1" parent="WIyWlLk6GJQsqaUBKTNV-1" source="KWccycREvvYaWBI_ZZew-5" target="KWccycREvvYaWBI_ZZew-34">
          <mxGeometry relative="1" as="geometry" />
        </mxCell>
        <mxCell id="KWccycREvvYaWBI_ZZew-73" style="edgeStyle=orthogonalEdgeStyle;rounded=0;orthogonalLoop=1;jettySize=auto;html=1;exitX=0.5;exitY=1;exitDx=0;exitDy=0;entryX=0.5;entryY=0;entryDx=0;entryDy=0;strokeWidth=3;fillColor=#f5f5f5;gradientColor=#b3b3b3;strokeColor=#666666;curved=1;" edge="1" parent="WIyWlLk6GJQsqaUBKTNV-1" source="KWccycREvvYaWBI_ZZew-50" target="KWccycREvvYaWBI_ZZew-37">
          <mxGeometry relative="1" as="geometry" />
        </mxCell>
        <mxCell id="KWccycREvvYaWBI_ZZew-74" style="edgeStyle=orthogonalEdgeStyle;rounded=0;orthogonalLoop=1;jettySize=auto;html=1;exitX=0.5;exitY=1;exitDx=0;exitDy=0;strokeWidth=3;fillColor=#f5f5f5;gradientColor=#b3b3b3;strokeColor=#666666;curved=1;entryX=0.5;entryY=0;entryDx=0;entryDy=0;" edge="1" parent="WIyWlLk6GJQsqaUBKTNV-1" source="KWccycREvvYaWBI_ZZew-53" target="KWccycREvvYaWBI_ZZew-37">
          <mxGeometry relative="1" as="geometry">
            <mxPoint x="1185" y="397" as="targetPoint" />
          </mxGeometry>
        </mxCell>
        <mxCell id="KWccycREvvYaWBI_ZZew-85" style="edgeStyle=orthogonalEdgeStyle;rounded=0;orthogonalLoop=1;jettySize=auto;html=1;entryX=0.5;entryY=0;entryDx=0;entryDy=0;strokeWidth=3;curved=1;fillColor=#f5f5f5;gradientColor=#b3b3b3;strokeColor=#666666;" edge="1" parent="WIyWlLk6GJQsqaUBKTNV-1" source="KWccycREvvYaWBI_ZZew-39" target="KWccycREvvYaWBI_ZZew-64">
          <mxGeometry relative="1" as="geometry" />
        </mxCell>
      </root>
    </mxGraphModel>
  </diagram>
</mxfile>
